<?xml version="1.0" encoding="UTF-8" standalone="no"?>
<svg xmlns="http://www.w3.org/2000/svg" version="1.1" width="600" height="600">
  <path style="fill-rule:nonzero;stroke:#000000;stroke-opacity:1;stroke-width:2;fill:none"
        d="M 263,128
           C 266.143819656749,160.599356088957 278.794244517676,192.225418241273 299,218
           C 322.469462045923,247.937785244663 356.098445524354,269.760848991304 393,279
           "/>
  <path style="fill-rule:nonzero;stroke:#000000;stroke-opacity:1;stroke-width:2;fill:none"
        d="M 63,358
           C 68.8991868511347,348.616294469042 72.8509176807828,338.025285318815 74.624853087743,327.084193592288
           C 76.3987884947032,316.143101865762 75.9653929030396,304.908325523792 74,294
           C 71.6626413146479,281.027189644243 67.1266830121056,268.574379672248 63.4139316406902,255.926354869755
           C 59.7011802692759,243.27833006726 56.8101298083928,229.789909394174 60,217
           C 61.2450132259244,212.008070737165 63.4533485198087,207.218298619548 66.7325831163745,203.25395300412
           C 70.0118177129403,199.289607388692 74.3863725003607,196.189321344391 79.306210125093,194.684458080121
           C 84.2260477498205,193.179594815853 89.6505340437748,193.323605993536 94.4460948515306,195.186939628971
           C 99.2416556592863,197.050273264406 103.327921403339,200.60347732053 106,205
           C 108.087831655975,208.435228004849 109.334930562909,212.347111489176 109.869558984596,216.331330976066
           C 110.404187406284,220.315550462956 110.245015199482,224.368904542917 109.727256563064,228.355351389848
           C 108.691739290227,236.328245083712 106.337076590331,244.072102670469 105,252
           C 102.863255959876,264.669347060673 103.850366353027,277.840289039919 108,290
           C 117.022814309794,316.439638625354 136.534570631354,338.39367132715 159,355
           "/>
  <path style="fill-rule:nonzero;stroke:#000000;stroke-opacity:1;stroke-width:2;fill:none"
        d="M 218,435
           C 212.018407315717,425.438355093608 210.263831740352,413.360139527517 213.172247162845,402.463092951183
           C 216.080662585338,391.566046374848 223.523246067565,382.115197401612 233,376
           C 240.130023575977,371.399110079664 248.301791984506,368.556988121207 256.646670653184,367.018019551646
           C 264.991549321861,365.479050982086 273.559466049184,365.126609549996 282,366
           C 290.737548302385,366.904124228185 299.518404307614,369.240154042667 306.74288771152,374.23705613328
           C 310.355129413474,376.735507178587 313.527697660199,379.902602264461 315.858286192657,383.625357270031
           C 318.188874725116,387.348112275602 319.65331162638,391.621603614253 320,396
           C 320.568101822827,403.17467084871 318.007630309998,410.441626167455 313.472206150494,416.029878950018
           C 308.93678199099,421.61813173258 302.649913510213,425.542740258368 296.080460774757,428.48228652013
           C 289.511008039425,431.421832782041 282.590414709655,433.505988742102 275.962056279896,436.310183099547
           C 269.333697850136,439.114377456991 262.925034584767,442.751888358034 258,448
           C 253.903926887268,452.364771174327 250.915960275948,457.820855837744 249.783530360515,463.698495230877
           C 248.651100445082,469.57613462401 249.406188703863,475.805627944824 251.937591299199,481.22974476228
           C 254.468993894539,486.653861579735 258.733235603797,491.224167699456 263.881182064832,494.278294347684
           C 269.029128525866,497.332420995912 275.015354499928,498.885717072282 281,499
           C 291.931869758743,499.208755235622 302.603487833113,494.688738686043 311.190786301786,487.920603035773
           C 319.778084770458,481.152467385504 326.469036371015,472.242266715665 331.982861896255,462.800493405119
           C 343.010512946702,443.916946784097 349.974551201761,422.88483252444 361,404
           C 368.091216538821,391.853878859637 376.774747311455,380.548653302262 387.391412706611,371.323685733532
           C 398.008078101767,362.098718164802 410.512922174164,354.989027760829 424,351
           C 442.022748808443,345.669472049341 461.823898465877,346.049197947311 479.336975838792,352.87020401499
           C 496.850053211706,359.691210082669 511.860016469153,373.059673233301 520,390
           C 527.51611869505,405.641985788907 529.009616125175,424.153956400158 523.749541841327,440.691652073584
           C 518.489467557478,457.229347747009 506.489131647256,471.547689759101 491.040082448721,479.452791815349
           C 475.591033250187,487.357893871597 456.905902532494,488.709716559381 440.501761260936,483.046863144257
           C 424.097619989377,477.384009729133 410.214089739915,464.783556914805 403,449
           "/>
  <path style="fill-rule:nonzero;stroke:#000000;stroke-opacity:1;stroke-width:2;fill:#808080;fill-opacity:0.5"
        d="M 392,104
           C 393.020547960268,97.1269474738366 393.609584978805,90.1965954347077 394.567509949724,83.3145355020496
           C 395.525434920642,76.4324755693915 396.966763353349,69.4887469945048 400.310842343836,63.3979748864723
           C 401.982881839033,60.3525888339547 404.132472715965,57.5510538842245 406.771595706421,55.2916021534692
           C 409.410718696877,53.0321504227139 412.544223902145,51.3287918838911 415.913842631028,50.4827647541079
           C 419.28346135991,49.6367376243249 422.876453248164,49.664165207287 426.215254512545,50.6246330096276
           C 429.554055776926,51.5851008119681 432.613664848034,53.4750253813436 435,56
           C 437.932358998721,59.1027209382368 439.814543060609,63.1180008760759 440.660500378216,67.3024916138763
           C 441.506457695824,71.4869823516766 441.360890303247,75.8223930055507 440.728825005567,80.0444896384358
           C 439.464694410208,88.4886829042269 436.534652734577,96.6007579475043 435,105
           C 432.975955342213,116.077711994867 433.85882647028,127.467179304104 432.697480599524,138.668238878377
           C 432.116807664052,144.268768665714 430.79291088149,149.893022918105 427.89444781188,154.720240210805
           C 424.995984742269,159.547457503504 420.415876369723,163.460065551813 415,165
           C 411.810098900213,165.907007149863 408.390241209305,165.991931445588 405.159793665313,165.242038345315
           C 401.92934612132,164.492145245043 398.903961578068,162.916787670808 396.384290477576,160.76054358869
           C 391.344948276591,156.448055424455 388.517057742095,149.963865087974 387.601044477986,143.394737011489
           C 386.685031213943,136.825608936089 387.470387380455,130.140013483659 388.569531267463,123.599034452462
           C 389.668675154471,117.058055421265 391.025823682197,110.560754870648 392,104
           Z"/>
  <path style="fill-rule:nonzero;stroke:#000000;stroke-opacity:1;stroke-width:2;fill:#808080;fill-opacity:0.5"
        d="M 475,214
           C 480.241870873719,222.645543470989 489.90481652612,228.443310863945 500,229
           C 507.870207287346,229.433994974604 515.870164044583,226.753775314173 521.890437669635,221.666062678491
           C 527.910711294688,216.57835004281 531.8872703814,209.137257153713 532.771573838188,201.304855109635
           C 533.655877294977,193.472453065556 531.438519703193,185.332047002844 526.704175023139,179.030103268232
           C 521.969830343086,172.72815953362 514.768852888467,168.33170536574 507,167
           C 501.133778982543,165.994436100449 494.982965014078,166.71074267218 489.504809907186,169.037440849118
           C 484.026654800294,171.364139026056 479.240324101322,175.293088760822 475.890714950485,180.212827200857
           C 472.541105799648,185.132565640892 470.639936939485,191.025880883077 470.483087476189,196.975595668475
           C 470.326238012892,202.925310453874 471.914256690717,208.910609465668 475,214
           Z"/>
  <path style="fill-rule:nonzero;stroke:#000000;stroke-opacity:1;stroke-width:2;fill:#808080;fill-opacity:0.5"
        d="M 456,136
           C 454.466123134452,129.90424154735 455.870065151437,123.138087215816 459.702573787218,118.155825991394
           C 463.535082422999,113.173564766971 469.714740887006,110.081038473812 476,110
           C 481.01025533848,109.935400682972 486.022894919362,111.746445251836 489.83486637696,114.998476191876
           C 493.646837834559,118.250507131915 496.224975520113,122.915230496644 496.950516685661,127.873095122228
           C 497.676057851209,132.830959747812 496.542690003378,138.038830264666 493.82242569016,142.246798146525
           C 491.102161376942,146.454766028383 486.81866796616,149.62622030135 482,151
           C 476.633152805861,152.530063032532 470.658521065816,151.792816515027 465.824604660313,149.004018588793
           C 460.990688254809,146.21522066256 457.361819000337,141.411985836925 456,136
           Z"/>
  <path style="fill-rule:nonzero;stroke:#000000;stroke-opacity:1;stroke-width:2;fill:#808080;fill-opacity:0.5"
        d="M 77,97
           C 83.661247937317,91.9020346471502 91.5406214929203,88.6713128487355 98.71917832871,84.331981497409
           C 105.897735164511,79.9926501461075 112.438286230108,74.6659928588578 118.49962210709,68.8675721939156
           C 124.560957988986,63.0691515586454 130.310058920069,56.8447853903842 137.258927895998,52.14641391805
           C 140.733362383963,49.7972281818823 144.51388853366,47.8583511705463 148.548715988952,46.713564710027
           C 152.583543444245,45.5687782495077 156.875367836426,45.2398828054952 161,46
           C 166.775184816872,47.0642930166013 172.148711096806,50.3740378147503 175.495202469418,55.1996439722447
           C 178.84169384203,60.0252501297392 180.05908740856,66.2238582812361 179,72
           C 178.239943346578,76.1452621464208 176.372907955121,80.0548582040913 173.804302023455,83.3959879451776
           C 171.235696091789,86.7371176862639 167.986095708065,89.518877212978 164.443564199368,91.8017164295794
           C 157.358501181975,96.3673948627825 149.227335202925,98.9828412520535 141.258613677597,101.729296197547
           C 133.289892163354,104.4757511463 125.403701890782,107.528953650751 117.974551295646,111.510317586874
           C 110.545400700518,115.491681523007 103.665251882295,120.494653948894 96,124
           C 93.3936289926471,125.191902424006 90.6753011966642,126.171061877852 87.856529124041,126.689063054416
           C 85.0377570514178,127.207064230979 82.1098487155812,127.249910366408 79.3206440689616,126.591018375565
           C 76.5314394223433,125.93212638472 73.8958432190337,124.551453500885 71.8719164670491,122.522285760427
           C 69.8479897150645,120.493118019968 68.4705334440672,117.827083213195 68,115
           C 67.4204227363408,111.517754107619 68.2269032485347,107.879154056248 69.9387982024425,104.791863670433
           C 71.6506931563502,101.704573284619 74.1966258207494,99.1454695221954 77,97
           Z"/>
</svg>
